<?xml version='1.0' encoding='utf-8'?>
<!-- Generator: imaengine 6.0   -->
<svg xmlns:xlink="http://www.w3.org/1999/xlink" xmlns="http://www.w3.org/2000/svg" viewBox="0,0,562,75" style="enable-background:new 0 0 562 75;" version="1.1">
<defs/>
<g id="layer0">
<g>
<path d="M118.899,52.2633C124.39,52.2633 128.717,50.1 132.211,45.7734L139.367,53.0954C133.709,59.4189 127.219,62.5807 119.564,62.5807C111.91,62.5807 105.752,60.2509 100.76,55.4251C95.7679,50.5992 93.4382,44.6085 93.4382,37.2866C93.4382,29.9646 95.9343,23.8074 100.927,18.9816C105.919,14.1557 112.076,11.6596 119.398,11.6596C127.552,11.6596 134.375,14.8214 139.7,20.9785L132.877,28.7997C129.382,24.4731 125.056,22.3098 119.897,22.3098C115.737,22.3098 112.242,23.641 109.247,26.3036C106.252,28.9661 104.754,32.6271 104.754,37.2866C104.754,41.946 106.085,45.607 108.914,48.4359C111.577,50.7656 114.905,52.2633 118.899,52.2633L118.899,52.2633L118.899,52.2633L118.899,52.2633L118.899,52.2633Z" fill="#FFFFFF"/>
<path d="M148.02,61.915L148.02,12.4917L159.003,12.4917L159.003,52.0969L180.137,52.0969L180.137,61.915L148.02,61.915L148.02,61.915L148.02,61.915L148.02,61.915L148.02,61.915Z" fill="#FFFFFF"/>
<path d="M228.396,55.0923C223.403,59.9181 217.246,62.4143 209.924,62.4143C202.602,62.4143 196.445,59.9181 191.453,55.0923C186.461,50.2664 183.965,44.1093 183.965,36.9537C183.965,29.6318 186.461,23.641 191.453,18.8152C196.445,13.9893 202.602,11.4932 209.924,11.4932C217.246,11.4932 223.403,13.9893 228.396,18.8152C233.388,23.641 235.884,29.7982 235.884,36.9537C235.884,44.2757 233.388,50.2664 228.396,55.0923L228.396,55.0923L228.396,55.0923L228.396,55.0923L228.396,55.0923ZM224.568,36.9537C224.568,32.6271 223.071,28.7997 220.242,25.6379C217.413,22.4762 213.918,20.9785 209.758,20.9785C205.598,20.9785 202.103,22.4762 199.274,25.6379C196.445,28.7997 194.947,32.4607 194.947,36.9537C194.947,41.2804 196.445,45.1078 199.274,48.2695C202.103,51.4313 205.598,52.929 209.758,52.929C213.918,52.929 217.413,51.4313 220.242,48.2695C223.237,45.1078 224.568,41.4468 224.568,36.9537L224.568,36.9537L224.568,36.9537L224.568,36.9537L224.568,36.9537Z" fill="#FFFFFF"/>
</g>
</g>
<g id="layer1">
<g>
<path d="M15.5,47.7L6.4,47.7L6.4,69.1L27.7,69.1L27.7,59.9L15.5,59.9L15.5,47.7L15.5,47.7L15.5,47.7L15.5,47.7Z" fill="#FFFFFF"/>
<path d="M61.3,47.8L61.3,59.9L49.1,59.9L49.1,59.8L49.1,69.1L70.4,69.1L70.4,47.7L61.2,47.7L61.3,47.8L61.3,47.8L61.3,47.8L61.3,47.8Z" fill="#FFFFFF"/>
<path d="M6.4,26.4L15.6,26.4L15.5,26.3L15.5,14.2L27.7,14.2L27.7,5L6.4,5L6.4,26.4L6.4,26.4L6.4,26.4L6.4,26.4Z" fill="#FFFFFF"/>
<path d="M49.1,5L49.1,14.2L61.3,14.2L61.3,26.4L70.4,26.4L70.4,5L49.1,5L49.1,5L49.1,5L49.1,5Z" fill="#FFFFFF"/>
</g>
<g>
<path d="M35.7,14.2L49.1,14.2L49.1,5L27.7,5L27.7,14.2L35.7,14.2L35.7,14.2L35.7,14.2Z" fill="#FFFFFF" fill-opacity="0.5"/>
<path d="M41,59.9L27.7,59.9L27.7,69.1L49.1,69.1L49.1,59.8L41,59.9L41,59.9L41,59.9Z" fill="#FFFFFF" fill-opacity="0.5"/>
<path d="M61.3,26.4L61.3,39.7L61.2,47.7L70.4,47.7L70.4,26.4L61.3,26.4L61.3,26.4L61.3,26.4L61.3,26.4Z" fill="#FFFFFF" fill-opacity="0.5"/>
<path d="M15.6,26.4L6.4,26.4L6.4,47.7L15.5,47.7L15.5,34.4L15.6,26.4L15.6,26.4L15.6,26.4Z" fill="#FFFFFF" fill-opacity="0.7"/>
</g>
<g>
<path d="M15.6356,47.7702L6.53564,47.7702L6.53564,69.1702L27.8356,69.1702L27.8356,59.9702L15.6356,59.9702L15.6356,47.7702L15.6356,47.7702L15.6356,47.7702L15.6356,47.7702Z" fill="#FFFFFF"/>
<path d="M61.4356,47.8702L61.4356,59.9702L49.2356,59.9702L49.2356,59.8702L49.2356,69.1702L70.5356,69.1702L70.5356,47.7702L61.3356,47.7702L61.4356,47.8702L61.4356,47.8702L61.4356,47.8702L61.4356,47.8702Z" fill="#FFFFFF"/>
<path d="M6.53564,26.4702L15.7356,26.4702L15.6356,26.3702L15.6356,14.2702L27.8356,14.2702L27.8356,5.07022L6.53564,5.07022L6.53564,26.4702L6.53564,26.4702L6.53564,26.4702L6.53564,26.4702Z" fill="#FFFFFF"/>
<path d="M49.2356,5.07022L49.2356,14.2702L61.4356,14.2702L61.4356,26.4702L70.5356,26.4702L70.5356,5.07022L49.2356,5.07022L49.2356,5.07022L49.2356,5.07022L49.2356,5.07022Z" fill="#FFFFFF"/>
</g>
<g>
<path d="M35.8356,14.2702L49.2356,14.2702L49.2356,5.07022L27.8356,5.07022L27.8356,14.2702L35.8356,14.2702L35.8356,14.2702L35.8356,14.2702Z" fill="#FFFFFF" fill-opacity="0.5"/>
<path d="M41.1356,59.9702L27.8356,59.9702L27.8356,69.1702L49.2356,69.1702L49.2356,59.8702L41.1356,59.9702L41.1356,59.9702L41.1356,59.9702Z" fill="#FFFFFF" fill-opacity="0.5"/>
<path d="M61.4356,26.4702L61.4356,39.7702L61.3356,47.7702L70.5356,47.7702L70.5356,26.4702L61.4356,26.4702L61.4356,26.4702L61.4356,26.4702L61.4356,26.4702Z" fill="#FFFFFF" fill-opacity="0.5"/>
<path d="M15.7356,26.4702L6.53564,26.4702L6.53564,47.7702L15.6356,47.7702L15.6356,34.4702L15.7356,26.4702L15.7356,26.4702L15.7356,26.4702Z" fill="#FFFFFF" fill-opacity="0.7"/>
</g>
<path d="M37.023,18.0972C35.7503,18.8723 34.2151,19.1095 33.3936,19.1095C32.5716,19.1095 31.438,19.0935 29.7821,18.1375C29.0956,17.7411 28.9718,17.6684 28.6032,17.6684C27.5421,17.6684 22.7363,22.4653 22.6569,23.1192C22.5775,23.7732 25.2963,25.4335 25.4272,27.8155C25.558,30.1974 23.8508,32.8943 23.1464,34.9971C21.6865,39.3482 21.2908,39.8411 21.2908,42.0524C21.6126,48.4332 25.9425,52.8734 32.0485,53.9058C34.6654,54.3028 35.7359,54.6835 36.9059,55.6334C37.3936,55.9907 37.9313,56.5118 38.5283,56.58L38.5283,56.5823C38.5308,56.5821 38.5332,56.5815 38.5356,56.5811C38.5381,56.5814 38.5405,56.5821 38.5429,56.5823L38.5429,56.58C39.14,56.5118 39.6777,55.9907 40.1654,55.6334C41.3354,54.6835 42.4059,54.3028 45.0228,53.9058C51.1287,52.8734 55.4586,48.4332 55.7805,42.0524C55.7805,39.8411 55.3848,39.3482 53.9249,34.9971C53.2205,32.8943 51.5133,30.1974 51.6441,27.8155C51.7749,25.4335 54.4938,23.7732 54.4144,23.1192C54.3349,22.4653 49.5292,17.6684 48.4681,17.6684C48.0995,17.6684 47.9757,17.7411 47.2892,18.1375C45.6333,19.0935 44.4997,19.1095 43.6777,19.1095C42.8562,19.1095 41.321,18.8723 40.0483,18.0972C39.6761,17.8716 39.2241,17.6581 38.5356,17.6581C37.9932,17.6581 37.4389,17.8466 37.0229,18.0972L37.023,18.0972L37.023,18.0972Z" fill="#FFFFFF"/>
</g>
<g id="layer2">
<g>
<path d="M258.334,63.5222L244.631,11.8754L251.641,11.8754L259.497,45.7312C260.343,49.2776 261.071,52.8006 261.681,56.3C262.996,50.7808 263.772,47.5983 264.007,46.7528L273.836,11.8754L282.079,11.8754L289.478,38.0159C291.334,44.4981 292.672,50.5928 293.495,56.3C294.151,53.0355 295.008,49.2894 296.065,45.0617L304.168,11.8754L311.038,11.8754L296.876,63.5222L290.289,63.5222L279.402,24.1705C278.486,20.8824 277.946,18.8625 277.781,18.111C277.241,20.4832 276.736,22.503 276.266,24.1705L265.31,63.5222L258.334,63.5222L258.334,63.5222L258.334,63.5222Z" fill="#FFFFFF" fill-opacity="0.7"/>
<path d="M309.066,63.5222L328.9,11.8754L336.263,11.8754L357.401,63.5222L349.614,63.5222L343.591,47.8802L321.995,47.8802L316.323,63.5222L309.066,63.5222L309.066,63.5222L309.066,63.5222ZM323.967,42.3139L341.477,42.3139L336.086,28.0105C334.442,23.6656 333.222,20.0956 332.423,17.3007C331.766,20.6123 330.837,23.9005 329.64,27.165L323.967,42.3139L323.967,42.3139L323.967,42.3139Z" fill="#FFFFFF" fill-opacity="0.7"/>
<path d="M362.967,63.5222L362.967,11.8754L385.867,11.8754C390.47,11.8754 393.969,12.3392 396.364,13.2669C398.761,14.1946 400.674,15.8328 402.108,18.1814C403.54,20.5301 404.257,23.1253 404.257,25.9672C404.257,29.6311 403.071,32.7197 400.698,35.2327C398.326,37.7458 394.662,39.3428 389.706,40.0239C391.515,40.8929 392.889,41.7502 393.828,42.5958C395.825,44.4277 397.715,46.7176 399.501,49.4655L408.485,63.5222L399.888,63.5222L393.054,52.7772C391.057,49.6769 389.413,47.3048 388.121,45.6607C386.83,44.0166 385.673,42.8658 384.651,42.2082C383.63,41.5505 382.59,41.0926 381.533,40.8342C380.758,40.6698 379.49,40.5876 377.728,40.5876L369.802,40.5876L369.802,63.5222L362.967,63.5222L362.967,63.5222L362.967,63.5222ZM369.802,34.6691L384.492,34.6691C387.616,34.6691 390.058,34.3461 391.82,33.7002C393.582,33.0543 394.92,32.0209 395.837,30.6C396.753,29.179 397.211,27.6347 397.211,25.9672C397.211,23.5247 396.324,21.5166 394.551,19.943C392.777,18.3694 389.977,17.5826 386.148,17.5826L369.802,17.5826L369.802,34.6691L369.802,34.6691L369.802,34.6691Z" fill="#FFFFFF" fill-opacity="0.7"/>
<path d="M414.966,63.5222L414.966,11.8754L432.757,11.8754C436.774,11.8754 439.839,12.122 441.953,12.6151C444.912,13.2962 447.436,14.5293 449.526,16.3143C452.251,18.6159 454.288,21.5576 455.639,25.1394C456.989,28.7211 457.665,32.8136 457.665,37.4169C457.665,41.3391 457.207,44.8152 456.29,47.8449C455.375,50.8747 454.2,53.3819 452.768,55.3665C451.335,57.3512 449.768,58.913 448.065,60.0521C446.362,61.1911 444.307,62.0543 441.9,62.6415C439.492,63.2287 436.727,63.5222 433.603,63.5222L414.966,63.5222L414.966,63.5222L414.966,63.5222ZM421.801,57.4274L432.828,57.4274C436.234,57.4274 438.904,57.1104 440.843,56.4762C442.78,55.8421 444.324,54.9496 445.475,53.7988C447.096,52.1782 448.359,49.9998 449.263,47.2637C450.167,44.5275 450.619,41.21 450.619,37.3112C450.619,31.9093 449.732,27.7581 447.959,24.8575C446.186,21.957 444.031,20.0135 441.495,19.0269C439.662,18.3224 436.715,17.97 432.651,17.97L421.801,17.97L421.801,57.4274L421.801,57.4274L421.801,57.4274Z" fill="#FFFFFF" fill-opacity="0.7"/>
<path d="M467.212,63.5222L467.212,11.8754L504.555,11.8754L504.555,17.97L474.047,17.97L474.047,33.7882L502.618,33.7882L502.618,39.8478L474.047,39.8478L474.047,57.4274L505.753,57.4274L505.753,63.5222L467.212,63.5222L467.212,63.5222L467.212,63.5222Z" fill="#FFFFFF" fill-opacity="0.7"/>
<path d="M515.124,63.5222L515.124,11.8754L522.135,11.8754L549.262,52.4248L549.262,11.8754L555.815,11.8754L555.815,63.5222L548.804,63.5222L521.677,22.9375L521.677,63.5222L515.124,63.5222L515.124,63.5222L515.124,63.5222Z" fill="#FFFFFF" fill-opacity="0.7"/>
</g>
</g>
</svg>
